<?xml version="1.0" encoding="utf-8"?>
<!-- Generator: Adobe Illustrator 23.1.1, SVG Export Plug-In . SVG Version: 6.00 Build 0)  -->
<svg version="1.1" id="Layer_1" xmlns="http://www.w3.org/2000/svg" xmlns:xlink="http://www.w3.org/1999/xlink" x="0px" y="0px"
	 width="181" height="226" style="enable-background:new 0 0 181 226;" xml:space="preserve">
<style type="text/css">
	.st0{fill:#FFFFFF;}
	.st1{fill:#211E1F;}
	.st2{fill:#717272;}
	.st3{fill:#E4E4E3;}
	.st4{fill:#FCFDFF;}
	.st5{fill:#929191;}
	.st6{fill:none;stroke:#211E1F;stroke-width:0.3067;stroke-linejoin:round;stroke-miterlimit:10;}
	.st7{opacity:0.2;fill:#211E1F;}
	.st8{fill:#183151;}
	.st9{clip-path:url(#SVGID_2_);}
	.st10{fill:#342563;}
	.st11{fill:#60C7D9;}
	.st12{fill:#F2EA3F;}
	.st13{fill:#4181C3;}
	.st14{fill:#EB008B;}
	.st15{opacity:0.15;fill:#231F20;}
	.st16{fill:none;stroke:#BF007B;stroke-width:1.6361;stroke-linecap:round;stroke-linejoin:round;stroke-miterlimit:10;}
	.st17{fill:none;stroke:#BF007B;stroke-width:0.4674;stroke-linecap:round;stroke-linejoin:round;stroke-miterlimit:10;}
	.st18{opacity:0.1;fill:#231F20;}
	.st19{fill:#FFFFFF;stroke:#EE4360;stroke-width:1.4023;stroke-linecap:round;stroke-linejoin:round;stroke-miterlimit:10;}
	.st20{opacity:0.15;}
</style>
<g>
	<g>
		<path class="st0" d="M150.1,219.7c-0.1,0-0.2,0-0.3-0.1L16.7,142.7c-0.2-0.1-0.3-0.3-0.3-0.5V12.5c0-0.2,0.1-0.4,0.3-0.5l6.8-3.8
			c0.1-0.1,0.2-0.1,0.3-0.1c0.1,0,0.2,0,0.3,0.1L157.2,85c0.2,0.1,0.3,0.3,0.3,0.5v129.7c0,0.2-0.1,0.4-0.3,0.5l-6.8,3.8
			C150.3,219.6,150.2,219.7,150.1,219.7z"/>
		<path class="st1" d="M23.8,8.7l133.1,76.8v129.7l-6.8,3.8L17,142.2V12.5L23.8,8.7 M23.8,7.4c-0.2,0-0.4,0.1-0.6,0.2l-6.8,3.8
			c-0.4,0.2-0.6,0.6-0.6,1.1v129.7c0,0.4,0.2,0.8,0.6,1.1l133.1,76.8c0.2,0.1,0.4,0.2,0.6,0.2c0.2,0,0.4-0.1,0.6-0.2l6.8-3.8
			c0.4-0.2,0.6-0.6,0.6-1.1V85.5c0-0.4-0.2-0.8-0.6-1.1L24.4,7.6C24.2,7.5,24,7.4,23.8,7.4L23.8,7.4z"/>
	</g>
	<polygon class="st2" points="150.5,100.5 17.4,23.8 17,12.6 150.1,88.8 	"/>
	<path class="st3" d="M135.9,102.8L33.1,43.5c-0.3-0.1-0.4-0.4-0.4-0.7l-0.1-4.6c0-0.7,0.7-1.1,1.2-0.8l102.9,58.7
		c0.3,0.1,0.4,0.4,0.4,0.7l0.1,5.2C137.2,102.7,136.5,103.1,135.9,102.8z"/>
	<path class="st4" d="M43.7,40.2L19.2,25.9c0,0,0-2.7,0-6.4s3.3-1.2,3.3-1.2l17.6,9.9c2.3,1.3,3.6,3.7,3.6,6.3L43.7,40.2z"/>
	<ellipse transform="matrix(0.8832 -0.4691 0.4691 0.8832 -26.5192 78.6118)" class="st5" cx="144.5" cy="92.5" rx="2" ry="3.2"/>
	<ellipse transform="matrix(0.8832 -0.4691 0.4691 0.8832 -25.5505 75.2346)" class="st5" cx="138.3" cy="88.9" rx="2" ry="3.2"/>
	<ellipse transform="matrix(0.8832 -0.4691 0.4691 0.8832 -24.3836 71.9764)" class="st5" cx="132.3" cy="84.9" rx="2" ry="3.2"/>
	<polygon class="st6" points="17,142.2 150.1,219 150.1,89.4 17,12.5 	"/>
	<g>
		<polygon class="st7" points="150.1,89.4 156.9,85.5 156.9,215.2 150.1,219 		"/>
		<polygon class="st6" points="150.1,89.4 156.9,85.5 156.9,215.2 150.1,219 		"/>
	</g>
	<polygon class="st8" points="17.4,37.2 150.5,113.9 150.5,122.7 17,45.8 	"/>
	<polygon class="st8" points="17.4,37.2 150.5,113.9 150.5,122.7 17,45.8 	"/>
	<g>
		<defs>
			<polygon id="SVGID_1_" points="17.4,142.3 150.5,219.1 150.5,122.7 17,45.8 			"/>
		</defs>
		<clipPath id="SVGID_2_">
			<use xlink:href="#SVGID_1_"  style="overflow:visible;"/>
		</clipPath>
		<g class="st9">
			<ellipse transform="matrix(0.8832 -0.4691 0.4691 0.8832 -35.3433 24.9852)" class="st10" cx="32.5" cy="83.4" rx="5" ry="7.8"/>
			
				<ellipse transform="matrix(0.8832 -0.4691 0.4691 0.8832 -49.3139 28.4649)" class="st11" cx="32.5" cy="113.2" rx="5" ry="7.8"/>
			
				<ellipse transform="matrix(0.8832 -0.4691 0.4691 0.8832 -63.0053 31.9213)" class="st12" cx="32.6" cy="142.4" rx="5" ry="7.8"/>
			<ellipse transform="matrix(0.8832 -0.4691 0.4691 0.8832 -22.454 21.7748)" class="st13" cx="32.5" cy="56" rx="5" ry="7.8"/>
			<polygon class="st3" points="43,63.2 117.8,106.3 117.8,116.6 42.6,73.4 			"/>
			<polygon class="st3" points="43,49.4 66.4,63 66.4,69.8 43.1,56.4 			"/>
			<polygon class="st3" points="43,58.1 54.1,64.6 54.1,67.5 43.1,61.2 			"/>
			<polygon class="st3" points="43,93.4 117.8,136.5 117.8,146.9 42.6,103.6 			"/>
			<polygon class="st3" points="43,79.6 90.3,107.3 90.3,114.1 43.1,86.6 			"/>
			<polygon class="st3" points="43,88.3 54.1,94.8 54.1,97.7 43.1,91.4 			"/>
			<polygon class="st3" points="43,123.6 117.8,166.7 117.8,177.1 42.6,133.9 			"/>
			<polygon class="st3" points="43,109.8 107.5,147.2 107.5,154 43.1,116.8 			"/>
			<polygon class="st3" points="43,118.5 54.1,125 54.1,127.9 43.1,121.6 			"/>
			<polygon class="st3" points="43,153.9 117.8,197 117.8,207.3 42.6,164.1 			"/>
			<polygon class="st3" points="43,140 70.1,155.9 70.1,162.7 43.1,147 			"/>
			<polygon class="st3" points="43,148.7 54.1,155.2 54.1,158.1 43.1,151.8 			"/>
		</g>
	</g>
</g>
</svg>
