<?xml version="1.0" encoding="utf-8"?>
<!-- Generator: Adobe Illustrator 23.1.1, SVG Export Plug-In . SVG Version: 6.00 Build 0)  -->
<svg version="1.1" id="Layer_1" xmlns="http://www.w3.org/2000/svg" xmlns:xlink="http://www.w3.org/1999/xlink" x="0px" y="0px"
	 viewBox="0 0 400 181.1" style="enable-background:new 0 0 400 181.1;" xml:space="preserve">
<style type="text/css">
	.st0{fill:#FFFFFF;}
	.st1{fill:#211E1F;}
	.st2{fill:#717272;}
	.st3{fill:#E4E4E3;}
	.st4{fill:#FCFDFF;}
	.st5{fill:#929191;}
	.st6{fill:none;stroke:#211E1F;stroke-width:0.3067;stroke-linejoin:round;stroke-miterlimit:10;}
	.st7{opacity:0.2;fill:#211E1F;}
	.st8{fill:#183151;}
	.st9{clip-path:url(#SVGID_2_);}
	.st10{fill:#342563;}
	.st11{fill:#60C7D9;}
	.st12{fill:#F2EA3F;}
	.st13{fill:#4181C3;}
	.st14{fill:#EB008B;}
	.st15{opacity:0.15;fill:#231F20;}
	.st16{fill:none;stroke:#BF007B;stroke-width:1.6361;stroke-linecap:round;stroke-linejoin:round;stroke-miterlimit:10;}
	.st17{fill:none;stroke:#BF007B;stroke-width:0.4674;stroke-linecap:round;stroke-linejoin:round;stroke-miterlimit:10;}
	.st18{opacity:0.1;fill:#231F20;}
	.st19{fill:#FFFFFF;stroke:#EE4360;stroke-width:1.4023;stroke-linecap:round;stroke-linejoin:round;stroke-miterlimit:10;}
	.st20{opacity:0.15;}
	.st21{fill:#BF007B;}
	.st22{fill:none;stroke:#BF007B;stroke-linecap:round;stroke-linejoin:round;stroke-miterlimit:10;}
	.st23{fill:#EB008B;stroke:#C4007E;stroke-miterlimit:10;}
	.st24{fill:none;stroke:#EB008B;stroke-width:2;stroke-miterlimit:10;}
	.st25{fill:none;stroke:#BF007B;stroke-width:3.5;stroke-linecap:round;stroke-linejoin:round;stroke-miterlimit:10;}
	.st26{fill:#FFFFFF;stroke:#00A69C;stroke-width:3.5;stroke-linecap:round;stroke-linejoin:round;stroke-miterlimit:10;}
	.st27{fill:none;stroke:#00A69C;stroke-width:8;stroke-linecap:round;stroke-linejoin:round;stroke-miterlimit:10;}
	.st28{opacity:0.1;}
</style>
<path class="st28" d="M347.6,63c-5.7-20.3-24.4-35.1-46.5-35.1c-3.8,0-7.4,0.4-10.9,1.3C277.1,11.5,256.1,0,232.4,0
	c-30.7,0-57,19.4-67.2,46.6c-10.6,6.4-18.8,16.5-22.5,28.6c-3.4-0.8-7-1.2-10.7-1.2c-12.3,0-23.5,4.5-32.1,12
	c-5.9-9.5-16.3-15.8-28.3-15.8c-16.2,0-29.8,11.7-32.6,27.1c-10.3,2.8-19,9.4-24.5,18.2l-2,0.3c-25.9,20.6-8.8,65.4,25.2,65.4
	s302.6,0,302.6,0l0,0c0.1,0,0.2,0,0.4,0c32.7,0,59.2-26.5,59.2-59.2C400,91.5,377.1,66.4,347.6,63z"/>
</svg>
