<?xml version="1.0" encoding="utf-8"?>
<!-- Generator: Adobe Illustrator 23.1.1, SVG Export Plug-In . SVG Version: 6.00 Build 0)  -->
<svg version="1.1" id="Layer_1" xmlns="http://www.w3.org/2000/svg" xmlns:xlink="http://www.w3.org/1999/xlink" x="0px" y="0px"
	 width="70" height="72" style="enable-background:new 0 0 70.6 71.9;" xml:space="preserve">
<style type="text/css">
	.st0{fill:#FFFFFF;}
	.st1{fill:#211E1F;}
	.st2{fill:#717272;}
	.st3{fill:#E4E4E3;}
	.st4{fill:#FCFDFF;}
	.st5{fill:#929191;}
	.st6{fill:none;stroke:#211E1F;stroke-width:0.3067;stroke-linejoin:round;stroke-miterlimit:10;}
	.st7{opacity:0.2;fill:#211E1F;}
	.st8{fill:#183151;}
	.st9{clip-path:url(#SVGID_2_);}
	.st10{fill:#342563;}
	.st11{fill:#60C7D9;}
	.st12{fill:#F2EA3F;}
	.st13{fill:#4181C3;}
	.st14{fill:#EB008B;}
	.st15{opacity:0.15;fill:#231F20;}
	.st16{fill:none;stroke:#BF007B;stroke-width:1.6361;stroke-linecap:round;stroke-linejoin:round;stroke-miterlimit:10;}
	.st17{fill:none;stroke:#BF007B;stroke-width:0.4674;stroke-linecap:round;stroke-linejoin:round;stroke-miterlimit:10;}
	.st18{opacity:0.1;fill:#231F20;}
	.st19{fill:#FFFFFF;stroke:#EE4360;stroke-width:1.4023;stroke-linecap:round;stroke-linejoin:round;stroke-miterlimit:10;}
	.st20{opacity:0.15;}
</style>
<g>
	<path class="st15" d="M44.8,38L18.3,53.3c-2.5,1.4-2.5,5,0,6.4l20.2,11.7c1.1,0.7,2.6,0.7,3.7,0l26.5-15.3c2.5-1.4,2.5-5,0-6.4
		L48.5,38C47.4,37.3,46,37.3,44.8,38z"/>
	<polygon class="st14" points="34.8,0.6 0.9,20.1 0.9,29.1 28.5,45 62.4,25.6 62.4,16.5 	"/>
	<path class="st15" d="M28.5,45l33.9-19.5v-9.3L29.6,35.2c-0.6,0.4-1,1.1-1,1.8V45z"/>
	<path class="st16" d="M35.5,1l26.9,15.5v8.3c0,0.5-0.3,0.9-0.7,1.2L29.2,44.7c-0.4,0.2-0.9,0.2-1.3,0L1.5,29.5
		c-0.4-0.2-0.7-0.7-0.7-1.2l0.1-7.5c0-0.5,0.3-0.9,0.7-1.1L34.2,1C34.6,0.8,35.1,0.8,35.5,1z"/>
	<path class="st17" d="M62.4,16.5l-33,18.9c-0.6,0.3-0.9,0.9-0.9,1.6v8"/>
	<path class="st15" d="M47.1,11.5l9.2,5.4l-11.5,6.5C44.8,23.4,50,17.2,47.1,11.5z"/>
	<line class="st17" x1="26.9" y1="35.1" x2="2.9" y2="21.2"/>
</g>
</svg>
