<?xml version="1.0" encoding="utf-8"?>
<!-- Generator: Adobe Illustrator 23.1.1, SVG Export Plug-In . SVG Version: 6.00 Build 0)  -->
<svg version="1.1" id="Layer_1" xmlns="http://www.w3.org/2000/svg" xmlns:xlink="http://www.w3.org/1999/xlink" x="0px" y="0px"
	width="155" height="160" style="enable-background:new 0 0 155 160;" xml:space="preserve">
<style type="text/css">
	.st0{fill:#FFFFFF;}
	.st1{fill:#211E1F;}
	.st2{fill:#717272;}
	.st3{fill:#E4E4E3;}
	.st4{fill:#FCFDFF;}
	.st5{fill:#929191;}
	.st6{fill:none;stroke:#211E1F;stroke-width:0.3067;stroke-linejoin:round;stroke-miterlimit:10;}
	.st7{opacity:0.2;fill:#211E1F;}
	.st8{fill:#183151;}
	.st9{clip-path:url(#SVGID_2_);}
	.st10{fill:#342563;}
	.st11{fill:#60C7D9;}
	.st12{fill:#F2EA3F;}
	.st13{fill:#4181C3;}
	.st14{fill:#EB008B;}
	.st15{opacity:0.15;fill:#231F20;}
	.st16{fill:none;stroke:#BF007B;stroke-width:1.6361;stroke-linecap:round;stroke-linejoin:round;stroke-miterlimit:10;}
	.st17{fill:none;stroke:#BF007B;stroke-width:0.4674;stroke-linecap:round;stroke-linejoin:round;stroke-miterlimit:10;}
	.st18{opacity:0.1;fill:#231F20;}
	.st19{fill:#FFFFFF;stroke:#EE4360;stroke-width:1.4023;stroke-linecap:round;stroke-linejoin:round;stroke-miterlimit:10;}
	.st20{opacity:0.15;}
</style>
<g>
	<polygon class="st14" points="71.6,11 7.3,48.1 7.3,88.7 75.5,128.1 139.8,91 139.8,50.4 	"/>
	<path class="st15" d="M75.5,128.1L139.8,91V49.8L78.1,85.5c-1.6,0.9-2.6,2.6-2.6,4.5V128.1z"/>
	<path class="st16" d="M73.2,12l64.9,37.5c1,0.6,1.6,1.7,1.6,2.9V89c0,1.2-0.6,2.3-1.7,2.9l-61,35.2c-1,0.6-2.3,0.6-3.3,0L8.7,89.7
		c-1.1-0.6-1.7-1.7-1.7-3L7.2,50c0-1.1,0.7-2.2,1.6-2.8L69.9,12C70.9,11.4,72.2,11.4,73.2,12z"/>
	<path class="st17" d="M139.8,50.4l-62,35.8c-1.4,0.8-2.3,2.3-2.3,3.9v37.9"/>
	<path class="st15" d="M104.9,39.7l18,10.5c0.8,0.4,0.8,1.6,0,2l-22.2,12.7c-1,0.6-2.2-0.6-1.6-1.6c3-4.9,6.8-13.6,4.1-22.3
		C102.9,40,104,39.1,104.9,39.7z"/>
	<line class="st17" x1="71.4" y1="85.3" x2="12" y2="51"/>
</g>
</svg>
