<?xml version="1.0" encoding="utf-8"?>
<!-- Generator: Adobe Illustrator 23.1.1, SVG Export Plug-In . SVG Version: 6.00 Build 0)  -->
<svg version="1.1" id="Layer_1" xmlns="http://www.w3.org/2000/svg" xmlns:xlink="http://www.w3.org/1999/xlink" x="0px" y="0px"
	 width="381" height="193" style="enable-background:new 0 0 381 193;" xml:space="preserve">
<style type="text/css">
	.st0{fill:#FFFFFF;}
	.st1{fill:#211E1F;}
	.st2{fill:#717272;}
	.st3{fill:#E4E4E3;}
	.st4{fill:#FCFDFF;}
	.st5{fill:#929191;}
	.st6{fill:none;stroke:#211E1F;stroke-width:0.3067;stroke-linejoin:round;stroke-miterlimit:10;}
	.st7{opacity:0.2;fill:#211E1F;}
	.st8{fill:#183151;}
	.st9{clip-path:url(#SVGID_2_);}
	.st10{fill:#342563;}
	.st11{fill:#60C7D9;}
	.st12{fill:#F2EA3F;}
	.st13{fill:#4181C3;}
	.st14{fill:#EB008B;}
	.st15{opacity:0.15;fill:#231F20;}
	.st16{fill:none;stroke:#BF007B;stroke-width:1.6361;stroke-linecap:round;stroke-linejoin:round;stroke-miterlimit:10;}
	.st17{fill:none;stroke:#BF007B;stroke-width:0.4674;stroke-linecap:round;stroke-linejoin:round;stroke-miterlimit:10;}
	.st18{opacity:0.1;fill:#231F20;}
	.st19{fill:#FFFFFF;stroke:#EE4360;stroke-width:1.4023;stroke-linecap:round;stroke-linejoin:round;stroke-miterlimit:10;}
	.st20{opacity:0.15;}
</style>
<path class="st18" d="M89.3,98.5c-4.5-2.8-11.6-5.2-20.4,0c-0.4,0.2-0.7,0.4-1,0.5l0,0l-30.2,17.5c-3.8,2.2-3.8,7.7,0,9.8L91,157.2
	c1.8,1,3.9,1,5.7,0l38.5-22.3c3.8-2.2,3.8-7.7,0-9.8L88.3,97.9L89.3,98.5z"/>
<path class="st18" d="M204.6,68.8c-2.8-1.7-7.2-3.3-12.7,0c-0.2,0.1-0.4,0.2-0.6,0.3l0,0l-18.9,11c-2.4,1.4-2.4,4.8,0,6.2l33.3,19.3
	c1.1,0.6,2.5,0.6,3.6,0l24.1-14c2.4-1.4,2.4-4.8,0-6.2l-29.3-17L204.6,68.8z"/>
<path class="st18" d="M163.2,94.5c-1.8-1.1-4.6-2.1-8.2,0l0,0c-0.1,0.1-0.3,0.1-0.4,0.2l0,0l-7.1,4.1c-3.8,2.2-3.8,7.7,0,9.8
	l14.6,8.4c1.8,1,3.9,1,5.7,0l8.7-5c3.8-2.2,3.8-7.7,0-9.8L163.2,94.5z"/>
<path class="st15" d="M35.8,90.5L35.8,90.5c3.8-2.2,3.8-7.7,0-9.8l-3.9-2.2c-1-0.6-2.6-1.2-4.6,0l0,0c-0.1,0-0.2,0.1-0.2,0.1l0,0
	l-0.3,0.2c-3.8,2.2-3.8,7.7,0,9.8l3.3,1.9C31.9,91.5,34,91.5,35.8,90.5z"/>
<path class="st15" d="M116.6,101.7L116.6,101.7c3.8-2.2,3.8-7.7,0-9.8l-4.1-2.4l0.2,0.1c-1-0.6-2.6-1.2-4.6,0l0,0
	c-0.1,0-0.2,0.1-0.2,0.1l0,0l-0.3,0.2c-3.8,2.2-3.8,7.7,0,9.8l3.3,1.9C112.6,102.7,114.8,102.7,116.6,101.7z"/>
<g>
	<path class="st19" d="M272.5,64.7c1.2-0.7,3.3-1.9,6.8,0.8c0,0,1.9-3.3,5.2-1.4L317,82.9l-29.3,16.9l-37.9-21.9L272.5,64.7
		L272.5,64.7z"/>
	<path class="st19" d="M285,64.4c-2.6-1.6-6.8-3.1-11.9,0l-0.6,0.3l0,0c1.2-0.7,3.3-1.9,6.8,0.8c0,0,1.9-3.3,5.2-1.4L285,64.4z"/>
	<polygon class="st19" points="266.5,71.6 270.8,74 260.4,80 256.1,77.6 	"/>
</g>
<g>
	<path class="st19" d="M195.7,98.5c1.2-0.7,3.3-1.9,6.8,0.8c0,0,1.9-3.3,5.2-1.4l32.5,18.8l-29.3,16.9L173,111.7L195.7,98.5
		L195.7,98.5z"/>
	<path class="st19" d="M208.2,98.2c-2.6-1.6-6.8-3.1-11.9,0l-0.6,0.3l0,0c1.2-0.7,3.3-1.9,6.8,0.8c0,0,1.9-3.3,5.2-1.4L208.2,98.2z"
		/>
	<polygon class="st19" points="189.7,105.4 193.9,107.8 183.6,113.8 179.3,111.4 	"/>
</g>
<g>
	<path class="st19" d="M183.2,34.5c1.4-0.8,3.9-2.2,8,0.9c0,0,2.2-3.9,6.1-1.7l38.3,22.1l-34.5,20L156.4,50L183.2,34.5L183.2,34.5z"
		/>
	<path class="st19" d="M197.9,34.1c-3.1-1.9-8-3.6-14.1,0l-0.7,0.4l0,0c1.4-0.8,3.9-2.2,8,0.9c0,0,2.2-3.9,6.1-1.7L197.9,34.1z"/>
	<path class="st15" d="M176.9,43l1.7,1c1.1,0.6,1.1,2.2,0,2.8l-9,5.2c-0.5,0.3-1.1,0.3-1.6,0l-1.7-1c-1.1-0.6-1.1-2.2,0-2.8l9-5.2
		C175.8,42.8,176.4,42.8,176.9,43z"/>
</g>
<g>
	<path class="st19" d="M37,10.4c1.4-0.8,3.9-2.2,8,0.9c0,0,2.2-3.9,6.1-1.7l38.3,22.1l-34.5,20L10.2,26L37,10.4L37,10.4z"/>
	<path class="st19" d="M51.7,10.1c-3.1-1.9-8-3.6-14.1,0L37,10.4l0,0c1.4-0.8,3.9-2.2,8,0.9c0,0,2.2-3.9,6.1-1.7L51.7,10.1z"/>
	<polygon class="st19" points="29.9,18.5 34.9,21.4 22.6,28.4 17.7,25.6 	"/>
</g>
<g>
	<path class="st19" d="M60,73.8c2-1.2,5.7-3.2,11.6,1.3c0,0,3.2-5.7,8.8-2.4l55.4,32l-49.9,28.9L21.3,96.2L60,73.8L60,73.8z"/>
	<path class="st19" d="M81.4,73.2c-4.5-2.8-11.6-5.2-20.4,0l-0.9,0.6l0,0c2-1.2,5.7-3.2,11.6,1.3c0,0,3.2-5.7,8.8-2.4L81.4,73.2z"/>
	<path class="st15" d="M51,86.2l2.2,1.2c1.7,1,1.7,3.4,0,4.4l-12.6,7.3c-0.8,0.4-1.7,0.4-2.5,0l-2.2-1.2c-1.7-1-1.7-3.4,0-4.4
		l12.6-7.3C49.3,85.8,50.2,85.8,51,86.2z"/>
</g>
<g>
	<path class="st19" d="M146.7,69.5c0.8-0.5,2.3-1.3,4.6,0.5c0,0,1.3-2.3,3.5-1l22.2,12.9l-20,11.6l-25.9-15L146.7,69.5L146.7,69.5z"
		/>
	<path class="st19" d="M155.2,69.3c-1.8-1.1-4.6-2.1-8.2,0l-0.4,0.2l0,0c0.8-0.5,2.3-1.3,4.6,0.5c0,0,1.3-2.3,3.5-1L155.2,69.3z"/>
	<polygon class="st19" points="142.5,74.2 145.4,75.9 138.3,80 135.4,78.3 	"/>
</g>
<g>
	<path class="st19" d="M95.6,31.3c0.8-0.5,2.3-1.3,4.6,0.5c0,0,1.3-2.3,3.5-1L126,43.7l-20,11.6L80,40.3L95.6,31.3L95.6,31.3z"/>
	<path class="st19" d="M104.1,31.1c-1.8-1.1-4.6-2.1-8.2,0l-0.4,0.2l0,0c0.8-0.5,2.3-1.3,4.6,0.5c0,0,1.3-2.3,3.5-1L104.1,31.1z"/>
	<polygon class="st19" points="91.4,36 94.3,37.7 87.2,41.8 84.3,40.1 	"/>
</g>
<g>
	<path class="st19" d="M328.9,116.6c0.9-0.5,2.4-1.4,4.9,0.6c0,0,1.3-2.4,3.8-1l23.7,13.7l-21.3,12.3l-27.6-16L328.9,116.6
		L328.9,116.6z"/>
	<path class="st19" d="M338,116.3c-1.9-1.2-4.9-2.2-8.7,0l-0.4,0.2l0,0c0.9-0.5,2.4-1.4,4.9,0.6c0,0,1.3-2.4,3.8-1L338,116.3z"/>
	<polygon class="st19" points="324.5,121.6 327.6,123.3 320,127.7 316.9,125.9 	"/>
</g>
<g>
	<path class="st19" d="M149.8,9.8c0.5-0.3,1.3-0.7,2.6,0.3c0,0,0.7-1.3,2-0.5l12.6,7.3l-11.3,6.6l-14.7-8.5L149.8,9.8L149.8,9.8z"/>
	<path class="st19" d="M154.6,9.7c-1-0.6-2.6-1.2-4.6,0l-0.2,0.1l0,0c0.5-0.3,1.3-0.7,2.6,0.3c0,0,0.7-1.3,2-0.5L154.6,9.7z"/>
	<polygon class="st19" points="147.4,12.5 149.1,13.4 145,15.7 143.4,14.8 	"/>
</g>
<g>
	<path class="st19" d="M19.1,53.3c0.5-0.3,1.3-0.7,2.6,0.3c0,0,0.7-1.3,2-0.5l12.6,7.3L25,66.9l-14.7-8.5L19.1,53.3L19.1,53.3z"/>
	<path class="st19" d="M24,53.2c-1-0.6-2.6-1.2-4.6,0l-0.2,0.1l0,0c0.5-0.3,1.3-0.7,2.6,0.3c0,0,0.7-1.3,2-0.5L24,53.2z"/>
	<polygon class="st19" points="16.8,56 18.4,56.9 14.4,59.2 12.8,58.3 	"/>
</g>
<g>
	<path class="st19" d="M99.9,64.5c0.5-0.3,1.3-0.7,2.6,0.3c0,0,0.7-1.3,2-0.5l12.6,7.3l-11.3,6.6l-14.7-8.5L99.9,64.5L99.9,64.5z"/>
	<path class="st19" d="M104.8,64.3c-1-0.6-2.6-1.2-4.6,0l-0.2,0.1l0,0c0.5-0.3,1.3-0.7,2.6,0.3c0,0,0.7-1.3,2-0.5L104.8,64.3z"/>
	<polygon class="st19" points="97.6,67.1 99.2,68.1 95.2,70.4 93.5,69.4 	"/>
</g>
<g class="st20">
	<path class="st15" d="M293.4,90.3l0.6,0.3c-2.6-1.6-6.8-3.1-11.9,0l0,0c-0.2,0.1-0.4,0.2-0.6,0.3l0,0l-22.7,13.2l37.9,21.9
		l29.3-16.9L293.4,90.3z"/>
	<path class="st15" d="M247.1,141.7l-30.6-17.7l0.6,0.3c-2.6-1.6-6.8-3.1-11.9,0l0,0c-0.2,0.1-0.4,0.2-0.6,0.3l0,0l-20.8,12
		c-0.9,0.5-0.9,1.7,0,2.2l35.3,20.4c0.4,0.2,0.9,0.2,1.3,0l26.7-15.5C248,143.5,248,142.2,247.1,141.7z"/>
	<path class="st15" d="M60.6,36.2c-3.1-1.9-8-3.6-14.1,0l0,0c-0.2,0.1-0.5,0.2-0.7,0.4l0,0L19.1,52.1l44.6,25.8l34.5-20L60.6,36.2z"
		/>
	<path class="st15" d="M164.1,95.5c-1.8-1.1-4.6-2.1-8.2,0l0,0c-0.1,0.1-0.3,0.1-0.4,0.2l0,0l-15.6,9l25.9,15l20-11.6L164.1,95.5z"
		/>
	<path class="st15" d="M113,57.3c-1.8-1.1-4.6-2.1-8.2,0l0,0c-0.1,0.1-0.3,0.1-0.4,0.2l0,0l-15.6,9l25.9,15l20-11.6L113,57.3z"/>
	<path class="st15" d="M346.4,142.3l0.4,0.2c-1.9-1.2-4.9-2.2-8.7,0l0,0c-0.1,0.1-0.3,0.2-0.4,0.2l0,0l-16.6,9.6l27.6,16l21.3-12.3
		L346.4,142.3z"/>
	<path class="st15" d="M163.5,35.9c-1-0.6-2.6-1.2-4.6,0l0,0c-0.1,0-0.2,0.1-0.2,0.1l0,0l-8.8,5.1l14.7,8.5l11.3-6.6L163.5,35.9z"/>
	<path class="st15" d="M32.9,79.3c-1-0.6-2.6-1.2-4.6,0l0,0c-0.1,0-0.2,0.1-0.2,0.1l0,0l-8.8,5.1l14.7,8.5l11.3-6.6L32.9,79.3z"/>
	<path class="st15" d="M113.4,90.4l0.2,0.1c-1-0.6-2.6-1.2-4.6,0l0,0c-0.1,0-0.2,0.1-0.2,0.1l0,0l-8.8,5.1l14.7,8.5l11.3-6.6
		L113.4,90.4z"/>
</g>
<g>
	<path class="st19" d="M272.5,64.7c1.2-0.7,3.3-1.9,6.8,0.8c0,0,1.9-3.3,5.2-1.4L317,82.9l-29.3,16.9l-37.9-21.9L272.5,64.7
		L272.5,64.7z"/>
	<path class="st19" d="M285,64.4c-2.6-1.6-6.8-3.1-11.9,0l-0.6,0.3l0,0c1.2-0.7,3.3-1.9,6.8,0.8c0,0,1.9-3.3,5.2-1.4L285,64.4z"/>
	<path class="st15" d="M267,71.9l2.2,1.2c0.7,0.4,0.7,1.4,0,1.8l-8.3,4.8c-0.3,0.2-0.7,0.2-1,0l-2.2-1.2c-0.7-0.4-0.7-1.4,0-1.8
		l8.3-4.8C266.3,71.7,266.7,71.7,267,71.9z"/>
</g>
<g>
	<path class="st19" d="M195.7,98.5c1.2-0.7,3.3-1.9,6.8,0.8c0,0,1.9-3.3,5.2-1.4l32.5,18.8l-29.3,16.9L173,111.7L195.7,98.5
		L195.7,98.5z"/>
	<path class="st19" d="M208.2,98.2c-2.6-1.6-6.8-3.1-11.9,0l-0.6,0.3l0,0c1.2-0.7,3.3-1.9,6.8,0.8c0,0,1.9-3.3,5.2-1.4L208.2,98.2z"
		/>
	<path class="st15" d="M190.1,105.7l2.6,1.5c0.5,0.3,0.6,1.1,0,1.4l-8.7,5c-0.3,0.1-0.6,0.1-0.8,0l-2.6-1.5c-0.5-0.3-0.6-1.1,0-1.4
		l8.7-5C189.6,105.5,189.9,105.5,190.1,105.7z"/>
</g>
<g>
	<path class="st19" d="M37,10.4c1.3-0.8,3.5-2,7,0.2c0.5,0.3,1.2,0.2,1.6-0.2c0.9-1,2.8-2.3,5.4-0.8l36.3,21c0.9,0.5,0.9,1.7,0,2.2
		L55.5,51.4c-0.4,0.2-0.9,0.2-1.3,0L12.1,27.1c-0.9-0.5-0.9-1.7,0-2.2L37,10.4L37,10.4z"/>
	<path class="st19" d="M51.7,10.1c-3.1-1.9-8-3.6-14.1,0L37,10.4l0,0c1.4-0.8,3.9-2.2,8,0.9c0,0,2.2-3.9,6.1-1.7L51.7,10.1z"/>
	<path class="st15" d="M30.6,19l1.9,1.1c1,0.6,1,2.1,0,2.7L23.4,28c-0.5,0.3-1,0.3-1.5,0L20,26.9c-1-0.6-1-2.1,0-2.7l9.2-5.3
		C29.6,18.7,30.2,18.7,30.6,19z"/>
</g>
<g>
	<path class="st19" d="M146.7,69.5c0.8-0.5,2.3-1.3,4.6,0.5c0,0,1.3-2.3,3.5-1l22.2,12.9l-20,11.6l-25.9-15L146.7,69.5L146.7,69.5z"
		/>
	<path class="st19" d="M155.2,69.3c-1.8-1.1-4.6-2.1-8.2,0l-0.4,0.2l0,0c0.8-0.5,2.3-1.3,4.6,0.5c0,0,1.3-2.3,3.5-1L155.2,69.3z"/>
	<path class="st15" d="M142.9,74.5l1.3,0.7c0.5,0.3,0.6,1.1,0,1.4l-5.5,3.2c-0.3,0.1-0.6,0.1-0.8,0l-1.3-0.7c-0.5-0.3-0.6-1.1,0-1.4
		l5.5-3.2C142.4,74.3,142.7,74.3,142.9,74.5z"/>
</g>
<g>
	<path class="st19" d="M95.6,31.3c0.8-0.5,2.3-1.3,4.6,0.5c0,0,1.3-2.3,3.5-1L126,43.7l-20,11.6L80,40.3L95.6,31.3L95.6,31.3z"/>
	<path class="st19" d="M104.1,31.1c-1.8-1.1-4.6-2.1-8.2,0l-0.4,0.2l0,0c0.8-0.5,2.3-1.3,4.6,0.5c0,0,1.3-2.3,3.5-1L104.1,31.1z"/>
	<path class="st15" d="M91.9,36.3l0.9,0.5c0.7,0.4,0.7,1.4,0,1.8l-5.1,2.9c-0.3,0.2-0.7,0.2-1,0L85.9,41c-0.7-0.4-0.7-1.4,0-1.8
		l5.1-2.9C91.2,36.1,91.6,36.1,91.9,36.3z"/>
</g>
<g>
	<path class="st19" d="M328.9,116.6c0.9-0.5,2.4-1.4,4.9,0.6c0,0,1.3-2.4,3.8-1l23.7,13.7l-21.3,12.3l-27.6-16L328.9,116.6
		L328.9,116.6z"/>
	<path class="st19" d="M338,116.3c-1.9-1.2-4.9-2.2-8.7,0l-0.4,0.2l0,0c0.9-0.5,2.4-1.4,4.9,0.6c0,0,1.3-2.4,3.8-1L338,116.3z"/>
	<path class="st15" d="M324.5,121.6l1.8,1c0.5,0.3,0.6,1.1,0,1.4l-6.3,3.6l-3.1-1.8L324.5,121.6z"/>
</g>
<g>
	<path class="st19" d="M149.8,9.8c0.5-0.3,1.3-0.7,2.6,0.3c0,0,0.7-1.3,2-0.5l12.6,7.3l-11.3,6.6l-14.7-8.5L149.8,9.8L149.8,9.8z"/>
	<path class="st19" d="M154.6,9.7c-1-0.6-2.6-1.2-4.6,0l-0.2,0.1l0,0c0.5-0.3,1.3-0.7,2.6,0.3c0,0,0.7-1.3,2-0.5L154.6,9.7z"/>
	<path class="st15" d="M147.8,12.7L147.8,12.7c0.5,0.3,0.6,1.1,0,1.4l-2.4,1.4c-0.3,0.1-0.6,0.1-0.8,0v0c-0.5-0.3-0.6-1.1,0-1.4
		l2.4-1.4C147.3,12.6,147.6,12.6,147.8,12.7z"/>
</g>
<g>
	<path class="st19" d="M19.1,53.3c0.5-0.3,1.3-0.7,2.6,0.3c0,0,0.7-1.3,2-0.5l12.6,7.3L25,66.9l-14.7-8.5L19.1,53.3L19.1,53.3z"/>
	<path class="st19" d="M24,53.2c-1-0.6-2.6-1.2-4.6,0l-0.2,0.1l0,0c0.5-0.3,1.3-0.7,2.6,0.3c0,0,0.7-1.3,2-0.5L24,53.2z"/>
	<polygon class="st19" points="16.8,56 18.4,56.9 14.4,59.2 12.8,58.3 	"/>
</g>
<g>
	<path class="st19" d="M99.9,64.5c0.5-0.3,1.3-0.7,2.6,0.3c0,0,0.7-1.3,2-0.5l12.6,7.3l-11.3,6.6l-14.7-8.5L99.9,64.5L99.9,64.5z"/>
	<path class="st19" d="M104.8,64.3c-1-0.6-2.6-1.2-4.6,0l-0.2,0.1l0,0c0.5-0.3,1.3-0.7,2.6,0.3c0,0,0.7-1.3,2-0.5L104.8,64.3z"/>
	<path class="st15" d="M98,67.4L98,67.4c0.5,0.3,0.6,1.1,0,1.4l-2.4,1.4c-0.3,0.1-0.6,0.1-0.8,0h0c-0.5-0.3-0.6-1.1,0-1.4l2.4-1.4
		C97.4,67.2,97.7,67.2,98,67.4z"/>
</g>
</svg>
