<?xml version="1.0" encoding="utf-8"?>
<!-- Generator: Adobe Illustrator 23.1.1, SVG Export Plug-In . SVG Version: 6.00 Build 0)  -->
<svg version="1.1" id="Layer_1" xmlns="http://www.w3.org/2000/svg" xmlns:xlink="http://www.w3.org/1999/xlink" x="0px" y="0px"
	 width="181" height="28" style="enable-background:new 0 0 181 28;" xml:space="preserve">
<style type="text/css">
	.st0{fill:#FFFFFF;}
	.st1{fill:#211E1F;}
	.st2{fill:#717272;}
	.st3{fill:#E4E4E3;}
	.st4{fill:#FCFDFF;}
	.st5{fill:#929191;}
	.st6{fill:none;stroke:#211E1F;stroke-width:0.3067;stroke-linejoin:round;stroke-miterlimit:10;}
	.st7{opacity:0.2;fill:#211E1F;}
	.st8{fill:#183151;}
	.st9{clip-path:url(#SVGID_2_);}
	.st10{fill:#342563;}
	.st11{fill:#60C7D9;}
	.st12{fill:#F2EA3F;}
	.st13{fill:#4181C3;}
	.st14{fill:#EB008B;}
	.st15{opacity:0.15;fill:#231F20;}
	.st16{fill:none;stroke:#BF007B;stroke-width:1.6361;stroke-linecap:round;stroke-linejoin:round;stroke-miterlimit:10;}
	.st17{fill:none;stroke:#BF007B;stroke-width:0.4674;stroke-linecap:round;stroke-linejoin:round;stroke-miterlimit:10;}
	.st18{opacity:0.1;fill:#231F20;}
	.st19{fill:#FFFFFF;stroke:#EE4360;stroke-width:1.4023;stroke-linecap:round;stroke-linejoin:round;stroke-miterlimit:10;}
	.st20{opacity:0.15;}
	.st21{fill:#BF007B;}
	.st22{fill:none;stroke:#BF007B;stroke-linecap:round;stroke-linejoin:round;stroke-miterlimit:10;}
	.st23{fill:#EB008B;stroke:#C4007E;stroke-miterlimit:10;}
	.st24{fill:none;stroke:#EB008B;stroke-width:2;stroke-miterlimit:10;}
	.st25{fill:none;stroke:#BF007B;stroke-width:3.5;stroke-linecap:round;stroke-linejoin:round;stroke-miterlimit:10;}
	.st26{fill:#FFFFFF;stroke:#00A69C;stroke-width:3.5;stroke-linecap:round;stroke-linejoin:round;stroke-miterlimit:10;}
	.st27{fill:none;stroke:#00A69C;stroke-width:8;stroke-linecap:round;stroke-linejoin:round;stroke-miterlimit:10;}
	.st28{opacity:0.1;}
</style>
<g>
	<path class="st0" d="M4.8,4.2v14h2.3v2.3H1.6V1.9h5.4v2.3H4.8z"/>
	<path class="st0" d="M25,3.3V18h-2.8v-1.2c-0.9,0.9-2.1,1.5-3.5,1.5c-3.2,0-5.5-2.5-5.5-5.7s2.3-5.7,5.5-5.7c1.1,0,2.1,0.4,3,0.9
		V3.5l3.1-0.4L25,3.3z M21.8,12.6c0-1.8-1.2-2.8-2.6-2.8c-1.6,0-2.7,1.2-2.7,2.8s1.1,2.8,2.7,2.8C20.7,15.4,21.8,14.3,21.8,12.6z"/>
	<path class="st0" d="M37.4,11.5V18h-2.7v-1c-0.9,0.8-2.1,1.3-3.5,1.3c-2.6,0-4.3-1.4-4.3-3.5c0-2.2,1.9-3.7,4.7-3.7
		c0.9,0,1.8,0.2,2.7,0.5v-0.5c0-1.1-1.1-1.8-2.5-1.8c-0.9,0-2,0.4-2.7,0.9h-0.2l-1.1-1.7V8.2c1.2-0.9,3.1-1.4,4.5-1.4
		C35,6.8,37.4,8.1,37.4,11.5z M34.3,14.3v-0.6c-0.5-0.2-1.3-0.5-2.2-0.5c-1.2,0-2,0.6-2,1.6c0,0.9,0.8,1.5,1.9,1.5
		C33.3,16.2,34.3,15.3,34.3,14.3z"/>
	<path class="st0" d="M47.7,17.2l-0.1,0.3c-0.7,0.5-1.7,0.9-2.8,0.9c-2.1,0-4.1-1.2-4.1-4.1V9.6h-1.9V7.1h1.9V3.9l3.1-0.3l0.3,0.2
		v3.4h3.2v2.5h-3.2v4.3c0,1.1,0.5,1.6,1.3,1.6c0.4,0,0.8-0.2,1.1-0.4l0.3,0.1L47.7,17.2z"/>
	<path class="st0" d="M58.9,11.5V18h-2.7v-1c-0.9,0.8-2.1,1.3-3.5,1.3c-2.6,0-4.3-1.4-4.3-3.5c0-2.2,1.9-3.7,4.7-3.7
		c0.9,0,1.8,0.2,2.7,0.5v-0.5c0-1.1-1.1-1.8-2.5-1.8c-0.9,0-2,0.4-2.7,0.9h-0.2l-1.1-1.7V8.2c1.2-0.9,3.1-1.4,4.5-1.4
		C56.5,6.8,58.9,8.1,58.9,11.5z M55.9,14.3v-0.6c-0.5-0.2-1.3-0.5-2.2-0.5c-1.2,0-2,0.6-2,1.6c0,0.9,0.8,1.5,1.9,1.5
		C54.8,16.2,55.9,15.3,55.9,14.3z"/>
	<path class="st0" d="M65.7,21.4v-0.2c1-1.1,1.6-2.1,1.6-2.8c-1-0.2-1.8-1-1.8-2.1c0-1.2,0.9-2.1,2.1-2.1c1.3,0,2.1,0.9,2.2,2.2
		c0,1.8-1.4,4.1-3.2,5.8h-0.3L65.7,21.4z"/>
	<path class="st0" d="M84.4,17.2l-0.1,0.3c-0.7,0.5-1.7,0.9-2.8,0.9c-2.1,0-4.1-1.2-4.1-4.1V9.6h-1.9V7.1h1.9V3.9l3.1-0.3l0.3,0.2
		v3.4H84v2.5h-3.2v4.3c0,1.1,0.5,1.6,1.3,1.6c0.4,0,0.8-0.2,1.1-0.4l0.3,0.1L84.4,17.2z"/>
	<path class="st0" d="M85.1,12.6c0-3.3,2.6-5.7,6.1-5.7c3.5,0,6,2.4,6,5.7s-2.5,5.7-6,5.7C87.7,18.3,85.1,15.9,85.1,12.6z
		 M93.9,12.6c0-1.6-1.1-2.8-2.7-2.8c-1.6,0-2.7,1.2-2.7,2.8c0,1.6,1.1,2.8,2.7,2.8C92.8,15.4,93.9,14.2,93.9,12.6z"/>
	<path class="st0" d="M110,7.1v9.1c0,3.7-2.7,5.5-6,5.5c-2.3,0-4.1-0.8-5.2-2.1v-0.2l1.4-1.7h0.2c0.8,0.9,2.1,1.6,3.5,1.6
		c1.5,0,2.9-0.7,2.9-2.4v-0.7c-0.8,0.6-1.9,1-3.1,1c-3,0-5.2-2.2-5.2-5.1c0-3,2.2-5.1,5.2-5.1c1.4,0,2.6,0.5,3.5,1.3v-1H110z
		 M107.1,12c0-1.5-1.1-2.6-2.6-2.6c-1.5,0-2.6,1.1-2.6,2.6c0,1.5,1.1,2.6,2.6,2.6C106.1,14.6,107.1,13.5,107.1,12z"/>
	<path class="st0" d="M115.3,13.3c0.2,1.7,1.4,2.5,2.9,2.5c1.1,0,2.3-0.4,3-1.2h0.2l1.5,1.4v0.3c-1.2,1.4-3.2,2-4.9,2
		c-3.4,0-6-2.3-6-5.7c0-3.3,2.4-5.8,5.8-5.8c1.6,0,3,0.6,4,1.5c1,1,1.6,2.4,1.6,4.1c0,0.3,0,0.6-0.1,0.9H115.3z M115.4,11.4h4.9
		c-0.1-0.6-0.3-1.1-0.7-1.5c-0.4-0.5-1.1-0.7-1.8-0.7C116.5,9.2,115.5,10.1,115.4,11.4z"/>
	<path class="st0" d="M133.1,17.2l-0.1,0.3c-0.7,0.5-1.7,0.9-2.8,0.9c-2.1,0-4.1-1.2-4.1-4.1V9.6h-1.9V7.1h1.9V3.9l3.1-0.3l0.3,0.2
		v3.4h3.2v2.5h-3.2v4.3c0,1.1,0.5,1.6,1.3,1.6c0.4,0,0.8-0.2,1.1-0.4l0.3,0.1L133.1,17.2z"/>
	<path class="st0" d="M145.5,11.6V18h-3.4v-6.2c0-1.2-0.8-2.1-2-2.1c-1.2,0-2.1,0.9-2.1,2.1V18h-3.3V3.5l3.1-0.4l0.2,0.2v4.6
		c0.7-0.7,1.7-1.1,2.9-1.1C143.7,6.8,145.5,8.7,145.5,11.6z"/>
	<path class="st0" d="M150.7,13.3c0.2,1.7,1.4,2.5,2.9,2.5c1.1,0,2.3-0.4,3-1.2h0.2l1.5,1.4v0.3c-1.2,1.4-3.2,2-4.9,2
		c-3.4,0-6-2.3-6-5.7c0-3.3,2.4-5.8,5.8-5.8c1.6,0,3,0.6,4,1.5c1,1,1.6,2.4,1.6,4.1c0,0.3,0,0.6-0.1,0.9H150.7z M150.8,11.4h4.9
		c-0.1-0.6-0.3-1.1-0.7-1.5c-0.4-0.5-1.1-0.7-1.8-0.7C151.8,9.2,150.9,10.1,150.8,11.4z"/>
	<path class="st0" d="M168.8,7.5l-0.7,2.4l-0.2,0.2c-0.4-0.2-0.8-0.3-1.3-0.3c-1.3,0-2.2,1-2.2,2.5V18h-3.4V7.1h2.8v1.4
		c0.7-1.1,1.8-1.7,3-1.7c0.7,0,1.3,0.1,1.8,0.4L168.8,7.5z"/>
	<path class="st0" d="M173.6,1.9h5.4v18.7h-5.4v-2.3h2.3v-14h-2.3V1.9z"/>
</g>
</svg>
